<svg width="204" height="700" viewBox="0 0 204 700" fill="none" xmlns="http://www.w3.org/2000/svg">
<rect width="204" height="700" fill="url(#paint0_linear_328_101)"/>
<path fill-rule="evenodd" clip-rule="evenodd" d="M134.562 0L137.75 9C142 18 149.437 36 149.437 54C149.437 72 176 90 179.188 108C183.438 126 152.195 150.797 167.5 162C181.844 172.5 197.25 197 197.25 215C197.25 233 185.562 253 167.5 269C150.316 284.222 126.062 302 137.75 323C149.437 344 165.375 361 150.5 377C135.625 393 156.875 413 167.5 431C179.187 449 213.959 468.487 197.25 485C186.625 495.5 119.687 521 134.562 538C149.437 556 154.75 568 157.937 586C162.187 604 164.312 628 142 646C119.687 664 127.125 682 130.312 691L134.562 700H89.9375V691C89.9375 682 89.9375 664 89.9375 646C89.9375 628 89.9375 610 89.9375 592C89.9375 574 89.9375 556 89.9375 538C89.9375 521 89.9375 503 89.9375 485C89.9375 467 89.9375 449 89.9375 431C89.9375 413 89.9375 395 89.9375 377C89.9375 359 89.9375 341 89.9375 323C89.9375 305 89.9375 287 89.9375 269C89.9375 251 89.9375 233 89.9375 215C89.9375 197 89.9375 179 89.9375 162C89.9375 144 89.9375 126 89.9375 108C89.9375 90 89.9375 72 89.9375 54C89.9375 36 89.9375 18 89.9375 9V0L134.562 0Z" fill="url(#paint1_linear_328_101)"/>
<defs>
<linearGradient id="paint0_linear_328_101" x1="-4.01564e-06" y1="320" x2="217.808" y2="317.178" gradientUnits="userSpaceOnUse">
<stop offset="0.4375" stop-color="#FE33D1"/>
<stop offset="0.520833" stop-color="#FE33D1" stop-opacity="0"/>
</linearGradient>
<linearGradient id="paint1_linear_328_101" x1="241.875" y1="350" x2="89.9373" y2="350" gradientUnits="userSpaceOnUse">
<stop offset="0.244792" stop-color="#312F62"/>
<stop offset="0.609375" stop-color="#CC2DDA"/>
<stop offset="1" stop-color="#FE33D1"/>
</linearGradient>
</defs>
</svg>
