<svg width="204" height="700" viewBox="0 0 204 700" fill="none" xmlns="http://www.w3.org/2000/svg">
<rect width="204" height="700" fill="url(#paint0_linear_328_101)"/>
<path fill-rule="evenodd" clip-rule="evenodd" d="M137.625 0L140.813 9C145.063 18 147.81 58.5226 157 74C166.5 90 164.258 87.0369 175.563 108C185 125.5 185 142.5 185 162C185 179.776 194.063 197 194.063 215C194.063 233 181.5 248.5 179.5 269C177.271 291.848 175.563 299 175.563 323C175.563 347 155.688 361 140.813 377C125.938 393 146.375 413 157 431C168.688 449 179.5 461.508 179.5 485C179.5 498.5 160.517 517.768 170.563 538C179.5 556 167.375 569.5 170.563 587.5C174.813 605.5 167.375 628 145.063 646C122.75 664 130.188 682 133.375 691L137.625 700H93.0001V691C93.0001 682 93.0001 664 93.0001 646C93.0001 628 93.0001 610 93.0001 592C93.0001 574 93.0001 556 93.0001 538C93.0001 521 93.0001 503 93.0001 485C93.0001 467 93.0001 449 93.0001 431C93.0001 413 93.0001 395 93.0001 377C93.0001 359 93.0001 341 93.0001 323C93.0001 305 93.0001 287 93.0001 269C93.0001 251 93.0001 233 93.0001 215C93.0001 197 93.0001 179 93.0001 162C93.0001 144 93.0001 126 93.0001 108C93.0001 90 93.0001 72 93.0001 54C93.0001 36 93.0001 18 93.0001 9V0L137.625 0Z" fill="url(#paint1_linear_328_101)"/>
<defs>
<linearGradient id="paint0_linear_328_101" x1="-4.01564e-06" y1="320" x2="217.808" y2="317.178" gradientUnits="userSpaceOnUse">
<stop offset="0.4375" stop-color="#FE33D1"/>
<stop offset="0.520833" stop-color="#FE33D1" stop-opacity="0"/>
</linearGradient>
<linearGradient id="paint1_linear_328_101" x1="241.875" y1="350" x2="89.9373" y2="350" gradientUnits="userSpaceOnUse">
<stop offset="0.416667" stop-color="#9E00FF"/>
<stop offset="0.703125" stop-color="#CC2DDA"/>
<stop offset="1" stop-color="#FE33D1"/>
</linearGradient>
</defs>
</svg>
