<svg width="193" height="700" viewBox="0 0 193 700" fill="none" xmlns="http://www.w3.org/2000/svg">
<rect width="192" height="700" fill="url(#paint0_linear_328_105)"/>
<path fill-rule="evenodd" clip-rule="evenodd" d="M123.768 0L127.393 9C132.228 18 140.688 36 140.688 54C140.688 72 132.228 90 135.853 108C140.688 126 157.608 144 161.233 162C166.068 179 157.608 197 157.608 215C157.608 233 166.068 251 161.233 269C157.608 287 140.688 305 127.393 323C115.308 341 106.848 359 115.308 377C123.768 395 149.148 413 161.233 431C174.528 449 174.528 467 157.608 485C140.688 503 106.848 521 123.768 538C140.688 556 187.97 574 191.596 592C196.43 610 157.608 628 132.228 646C106.848 664 115.308 682 118.933 691L123.768 700H73.0078V691C73.0078 682 73.0078 664 73.0078 646C73.0078 628 73.0078 610 73.0078 592C73.0078 574 73.0078 556 73.0078 538C73.0078 521 73.0078 503 73.0078 485C73.0078 467 73.0078 449 73.0078 431C73.0078 413 73.0078 395 73.0078 377C73.0078 359 73.0078 341 73.0078 323C73.0078 305 73.0078 287 73.0078 269C73.0078 251 73.0078 233 73.0078 215C73.0078 197 73.0078 179 73.0078 162C73.0078 144 73.0078 126 73.0078 108C73.0078 90 73.0078 72 73.0078 54C73.0078 36 73.0078 18 73.0078 9V0L123.768 0Z" fill="url(#paint1_linear_328_105)"/>
<defs>
<linearGradient id="paint0_linear_328_105" x1="6.65201e-06" y1="335.5" x2="192" y2="335.5" gradientUnits="userSpaceOnUse">
<stop offset="0.4375" stop-color="#312F62"/>
<stop offset="0.463542" stop-color="#C4C4C4" stop-opacity="0"/>
</linearGradient>
<linearGradient id="paint1_linear_328_105" x1="212.273" y1="350" x2="73.0079" y2="350" gradientUnits="userSpaceOnUse">
<stop stop-color="#C629C9"/>
<stop offset="0.765625" stop-color="#312F62"/>
</linearGradient>
</defs>
</svg>
