<svg width="184" height="700" viewBox="0 0 184 700" fill="none" xmlns="http://www.w3.org/2000/svg">
<g clip-path="url(#clip0_291_91)">
<path d="M184 0H0V700H184V0Z" fill="url(#paint0_linear_291_91)"/>
<path fill-rule="evenodd" clip-rule="evenodd" d="M129.321 0L130.751 11.7C132.182 23.4 135.042 46.8 133.612 70.2C132.182 93.6 126.461 117 132.182 140.4C137.902 163.8 155.062 187.2 160.783 210.6C166.503 234 160.783 257.4 147.912 280.8C135.042 304.2 115.021 327.6 116.451 351C117.881 374.4 140.762 397.8 147.912 421.2C155.062 444.6 146.482 468 146.482 491.4C146.482 514.8 155.062 538.2 157.923 561.6C160.783 585 157.923 608.4 150.772 631.8C143.622 655.2 132.182 678.6 126.461 690.3L120.741 702H95V690.3C95 678.6 95 655.2 95 631.8C95 608.4 95 585 95 561.6C95 538.2 95 514.8 95 491.4C95 468 95 444.6 95 421.2C95 397.8 95 374.4 95 351C95 327.6 95 304.2 95 280.8C95 257.4 95 234 95 210.6C95 187.2 95 163.8 95 140.4C95 117 95 93.6 95 70.2C95 46.8 95 23.4 95 11.7V0H129.321Z" fill="url(#paint1_linear_291_91)"/>
<path fill-rule="evenodd" clip-rule="evenodd" d="M151.04 0L148.038 5.83333C145.036 11.0833 139.032 22.1667 143.535 33.25C148.038 44.3333 163.048 55.4167 169.051 66.5C175.055 77.5833 172.053 88.6667 158.545 99.75C145.036 110.833 121.021 122.5 121.021 133.583C121.021 144.667 145.036 155.75 154.042 166.833C163.048 177.917 157.044 189 151.04 200.083C145.036 211.167 139.032 222.25 136.031 233.333C133.029 244.417 133.029 255.5 133.029 266.583C133.029 277.667 133.029 288.75 137.531 299.833C142.034 310.917 151.04 322 155.543 333.083C160.046 344.167 160.046 355.833 154.042 366.917C148.038 378 136.031 389.083 133.029 400.167C130.027 411.25 136.031 422.333 131.528 433.417C127.025 444.5 112.015 455.583 104.51 466.667C97.0057 477.75 97.0057 488.833 100.008 499.917C103.01 511 109.013 522.083 116.518 533.167C124.023 544.25 133.029 555.333 134.53 566.417C136.031 577.5 130.027 589.167 128.526 600.25C127.025 611.333 130.027 622.417 128.526 633.5C127.025 644.583 121.021 655.667 125.524 666.75C130.027 677.833 156.5 686 151 700H88V694.167C88 688.917 88 677.833 88 666.75C88 655.667 88 644.583 88 633.5C88 622.417 88 611.333 88 600.25C88 589.167 88 577.5 88 566.417C88 555.333 88 544.25 88 533.167C88 522.083 88 511 88 499.917C88 488.833 88 477.75 88 466.667C88 455.583 88 444.5 88 433.417C88 422.333 88 411.25 88 400.167C88 389.083 88 378 88 366.917C88 355.833 88 344.167 88 333.083C88 322 88 310.917 88 299.833C88 288.75 88 277.667 88 266.583C88 255.5 88 244.417 88 233.333C88 222.25 88 211.167 88 200.083C88 189 88 177.917 88 166.833C88 155.75 88 144.667 88 133.583C88 122.5 88 110.833 88 99.75C88 88.6667 88 77.5833 88 66.5C88 55.4167 88 44.3333 88 33.25C88 22.1667 88 11.0833 88 5.83333V0H151.04Z" fill="url(#paint2_linear_291_91)"/>
</g>
<defs>
<linearGradient id="paint0_linear_291_91" x1="-2.60482e-08" y1="287.5" x2="133.5" y2="287.5" gradientUnits="userSpaceOnUse">
<stop offset="0.65625" stop-color="#312F62"/>
<stop offset="0.729167" stop-color="#2019D7" stop-opacity="0.521739"/>
<stop offset="1" stop-color="white" stop-opacity="0"/>
</linearGradient>
<linearGradient id="paint1_linear_291_91" x1="163" y1="351" x2="95" y2="351" gradientUnits="userSpaceOnUse">
<stop stop-color="#9E00FF"/>
<stop offset="0.4375" stop-color="#EE16C8"/>
<stop offset="1" stop-color="#312F62"/>
</linearGradient>
<linearGradient id="paint2_linear_291_91" x1="172" y1="350" x2="88" y2="350" gradientUnits="userSpaceOnUse">
<stop offset="0.09375" stop-color="#CC2DDA"/>
<stop offset="0.270833" stop-color="#7B3DDF"/>
<stop offset="1" stop-color="#312F62"/>
</linearGradient>
<clipPath id="clip0_291_91">
<rect width="184" height="700" fill="white"/>
</clipPath>
</defs>
</svg>
